<mxfile host="app.diagrams.net" modified="2022-05-04T11:39:06.633Z" agent="5.0 (X11)" etag="o-yOP4V6jEVwc_ex31Fx" version="17.5.0" type="github">
  <diagram id="plh67jgENMA53FNCtq9d" name="Page-1">
    <mxGraphModel dx="1185" dy="634" grid="1" gridSize="10" guides="1" tooltips="1" connect="1" arrows="1" fold="1" page="1" pageScale="1" pageWidth="850" pageHeight="1100" math="0" shadow="0">
      <root>
        <mxCell id="0" />
        <mxCell id="1" parent="0" />
        <mxCell id="KQJn2tuOF-RIVonFvmoG-1" value="" style="whiteSpace=wrap;html=1;rounded=0;sketch=1;fillColor=#e3c800;strokeColor=#B09500;fontColor=#000000;" vertex="1" parent="1">
          <mxGeometry x="635" y="170" width="130" height="210" as="geometry" />
        </mxCell>
        <mxCell id="KQJn2tuOF-RIVonFvmoG-2" value="Domain" style="text;html=1;align=center;verticalAlign=middle;resizable=0;points=[];autosize=1;strokeColor=#B09500;fillColor=#e3c800;fontColor=#000000;sketch=1;" vertex="1" parent="1">
          <mxGeometry x="705" y="150" width="60" height="20" as="geometry" />
        </mxCell>
        <mxCell id="KQJn2tuOF-RIVonFvmoG-3" value="Authentication" style="whiteSpace=wrap;html=1;rounded=1;sketch=1;dashed=1;" vertex="1" parent="1">
          <mxGeometry x="652.5" y="200" width="95" height="40" as="geometry" />
        </mxCell>
        <mxCell id="KQJn2tuOF-RIVonFvmoG-4" value="" style="whiteSpace=wrap;html=1;rounded=0;sketch=1;fillColor=#6a00ff;strokeColor=#3700CC;fontColor=#ffffff;" vertex="1" parent="1">
          <mxGeometry x="305" y="150" width="292" height="60" as="geometry" />
        </mxCell>
        <mxCell id="KQJn2tuOF-RIVonFvmoG-5" value="Infra" style="text;html=1;align=center;verticalAlign=middle;resizable=0;points=[];autosize=1;strokeColor=#001DBC;fillColor=#0050ef;fontColor=#000000;sketch=1;" vertex="1" parent="1">
          <mxGeometry x="557" y="130" width="40" height="20" as="geometry" />
        </mxCell>
        <mxCell id="KQJn2tuOF-RIVonFvmoG-6" style="edgeStyle=none;html=1;entryX=0.558;entryY=1.022;entryDx=0;entryDy=0;entryPerimeter=0;fontColor=#000000;sketch=1;" edge="1" parent="1" source="KQJn2tuOF-RIVonFvmoG-8" target="KQJn2tuOF-RIVonFvmoG-9">
          <mxGeometry relative="1" as="geometry" />
        </mxCell>
        <mxCell id="KQJn2tuOF-RIVonFvmoG-7" style="edgeStyle=none;sketch=1;html=1;entryX=0.5;entryY=0;entryDx=0;entryDy=0;fontColor=#000000;exitX=0.5;exitY=1;exitDx=0;exitDy=0;" edge="1" parent="1" source="KQJn2tuOF-RIVonFvmoG-8" target="KQJn2tuOF-RIVonFvmoG-15">
          <mxGeometry relative="1" as="geometry">
            <mxPoint x="455" y="230" as="sourcePoint" />
            <Array as="points">
              <mxPoint x="455" y="230" />
              <mxPoint x="347" y="230" />
            </Array>
          </mxGeometry>
        </mxCell>
        <mxCell id="KQJn2tuOF-RIVonFvmoG-8" value="AxiosHttpClient" style="whiteSpace=wrap;html=1;rounded=0;sketch=1;" vertex="1" parent="1">
          <mxGeometry x="386" y="158" width="138" height="44" as="geometry" />
        </mxCell>
        <mxCell id="KQJn2tuOF-RIVonFvmoG-9" value="Axios" style="whiteSpace=wrap;html=1;rounded=0;sketch=1;fillColor=#647687;strokeColor=#314354;fontColor=#000000;labelBorderColor=none;shadow=0;" vertex="1" parent="1">
          <mxGeometry x="413" y="60" width="76" height="44" as="geometry" />
        </mxCell>
        <mxCell id="KQJn2tuOF-RIVonFvmoG-10" value="" style="whiteSpace=wrap;html=1;rounded=0;sketch=1;fillColor=#d80073;strokeColor=#A50040;fontColor=#ffffff;" vertex="1" parent="1">
          <mxGeometry x="275" y="250" width="320" height="140" as="geometry" />
        </mxCell>
        <mxCell id="KQJn2tuOF-RIVonFvmoG-11" value="Data" style="text;html=1;align=center;verticalAlign=middle;resizable=0;points=[];autosize=1;strokeColor=#A50040;fillColor=#d80073;fontColor=#000000;sketch=1;" vertex="1" parent="1">
          <mxGeometry x="555" y="230" width="40" height="20" as="geometry" />
        </mxCell>
        <mxCell id="KQJn2tuOF-RIVonFvmoG-12" style="edgeStyle=none;sketch=1;html=1;entryX=0;entryY=0.5;entryDx=0;entryDy=0;fontColor=#000000;" edge="1" parent="1" source="KQJn2tuOF-RIVonFvmoG-14" target="KQJn2tuOF-RIVonFvmoG-3">
          <mxGeometry relative="1" as="geometry">
            <Array as="points">
              <mxPoint x="502" y="220" />
            </Array>
          </mxGeometry>
        </mxCell>
        <mxCell id="KQJn2tuOF-RIVonFvmoG-13" style="edgeStyle=none;sketch=1;html=1;entryX=1;entryY=0.5;entryDx=0;entryDy=0;fontColor=#000000;" edge="1" parent="1" source="KQJn2tuOF-RIVonFvmoG-14" target="KQJn2tuOF-RIVonFvmoG-15">
          <mxGeometry relative="1" as="geometry" />
        </mxCell>
        <mxCell id="KQJn2tuOF-RIVonFvmoG-14" value="RemoteAuthentication" style="whiteSpace=wrap;html=1;rounded=0;sketch=1;" vertex="1" parent="1">
          <mxGeometry x="432.75" y="298" width="138" height="44" as="geometry" />
        </mxCell>
        <mxCell id="KQJn2tuOF-RIVonFvmoG-15" value="HttpPostClient" style="whiteSpace=wrap;html=1;rounded=1;sketch=1;dashed=1;" vertex="1" parent="1">
          <mxGeometry x="299.25" y="300" width="95" height="40" as="geometry" />
        </mxCell>
        <mxCell id="KQJn2tuOF-RIVonFvmoG-16" value="" style="whiteSpace=wrap;html=1;rounded=0;sketch=1;fillColor=#a20025;strokeColor=#6F0000;fontColor=#ffffff;" vertex="1" parent="1">
          <mxGeometry x="85" y="110" width="160" height="280" as="geometry" />
        </mxCell>
        <mxCell id="KQJn2tuOF-RIVonFvmoG-17" value="Main" style="text;html=1;align=center;verticalAlign=middle;resizable=0;points=[];autosize=1;strokeColor=#6F0000;fillColor=#a20025;fontColor=#000000;sketch=1;" vertex="1" parent="1">
          <mxGeometry x="205" y="90" width="40" height="20" as="geometry" />
        </mxCell>
        <mxCell id="KQJn2tuOF-RIVonFvmoG-18" value="" style="whiteSpace=wrap;html=1;rounded=0;sketch=1;fillColor=#60a917;strokeColor=#2D7600;fontColor=#ffffff;" vertex="1" parent="1">
          <mxGeometry x="425" y="430" width="340" height="150" as="geometry" />
        </mxCell>
        <mxCell id="KQJn2tuOF-RIVonFvmoG-19" value="Presentation" style="text;html=1;align=center;verticalAlign=middle;resizable=0;points=[];autosize=1;strokeColor=#2D7600;fillColor=#60a917;fontColor=#000000;sketch=1;" vertex="1" parent="1">
          <mxGeometry x="685" y="410" width="80" height="20" as="geometry" />
        </mxCell>
        <mxCell id="KQJn2tuOF-RIVonFvmoG-20" style="edgeStyle=none;sketch=1;html=1;fontColor=#000000;" edge="1" parent="1" source="KQJn2tuOF-RIVonFvmoG-22" target="KQJn2tuOF-RIVonFvmoG-23">
          <mxGeometry relative="1" as="geometry" />
        </mxCell>
        <mxCell id="KQJn2tuOF-RIVonFvmoG-21" style="edgeStyle=none;sketch=1;html=1;entryX=0;entryY=0.75;entryDx=0;entryDy=0;fontColor=#000000;" edge="1" parent="1" source="KQJn2tuOF-RIVonFvmoG-22" target="KQJn2tuOF-RIVonFvmoG-3">
          <mxGeometry relative="1" as="geometry">
            <Array as="points">
              <mxPoint x="534" y="410" />
              <mxPoint x="605" y="410" />
              <mxPoint x="605" y="230" />
            </Array>
          </mxGeometry>
        </mxCell>
        <mxCell id="KQJn2tuOF-RIVonFvmoG-22" value="Login" style="whiteSpace=wrap;html=1;rounded=0;sketch=1;" vertex="1" parent="1">
          <mxGeometry x="465" y="483" width="138" height="44" as="geometry" />
        </mxCell>
        <mxCell id="KQJn2tuOF-RIVonFvmoG-23" value="Validation" style="whiteSpace=wrap;html=1;rounded=1;sketch=1;dashed=1;" vertex="1" parent="1">
          <mxGeometry x="624" y="485" width="95" height="40" as="geometry" />
        </mxCell>
        <mxCell id="KQJn2tuOF-RIVonFvmoG-24" style="edgeStyle=none;sketch=1;html=1;entryX=0.5;entryY=0;entryDx=0;entryDy=0;fontColor=#000000;exitX=0.5;exitY=0;exitDx=0;exitDy=0;" edge="1" parent="1" source="KQJn2tuOF-RIVonFvmoG-27" target="KQJn2tuOF-RIVonFvmoG-23">
          <mxGeometry relative="1" as="geometry">
            <Array as="points">
              <mxPoint x="242" y="400" />
              <mxPoint x="672" y="400" />
            </Array>
          </mxGeometry>
        </mxCell>
        <mxCell id="KQJn2tuOF-RIVonFvmoG-25" value="" style="whiteSpace=wrap;html=1;rounded=0;sketch=1;fillColor=#1ba1e2;strokeColor=#006EAF;fontColor=#ffffff;" vertex="1" parent="1">
          <mxGeometry x="85" y="430" width="313" height="150" as="geometry" />
        </mxCell>
        <mxCell id="KQJn2tuOF-RIVonFvmoG-26" value="Validation" style="text;html=1;align=center;verticalAlign=middle;resizable=0;points=[];autosize=1;strokeColor=#006EAF;fillColor=#1ba1e2;fontColor=#000000;sketch=1;" vertex="1" parent="1">
          <mxGeometry x="323" y="410" width="70" height="20" as="geometry" />
        </mxCell>
        <mxCell id="KQJn2tuOF-RIVonFvmoG-27" value="EmailValidation" style="whiteSpace=wrap;html=1;rounded=0;sketch=1;" vertex="1" parent="1">
          <mxGeometry x="172.5" y="450" width="138" height="44" as="geometry" />
        </mxCell>
        <mxCell id="KQJn2tuOF-RIVonFvmoG-28" style="edgeStyle=none;sketch=1;html=1;entryX=0.5;entryY=1;entryDx=0;entryDy=0;fontColor=#000000;" edge="1" parent="1" source="KQJn2tuOF-RIVonFvmoG-29" target="KQJn2tuOF-RIVonFvmoG-23">
          <mxGeometry relative="1" as="geometry">
            <Array as="points">
              <mxPoint x="242" y="610" />
              <mxPoint x="672" y="610" />
            </Array>
          </mxGeometry>
        </mxCell>
        <mxCell id="KQJn2tuOF-RIVonFvmoG-29" value="PasswordValidation" style="whiteSpace=wrap;html=1;rounded=0;sketch=1;" vertex="1" parent="1">
          <mxGeometry x="172.5" y="510" width="138" height="44" as="geometry" />
        </mxCell>
        <mxCell id="KQJn2tuOF-RIVonFvmoG-30" value="LoginFactory" style="whiteSpace=wrap;html=1;rounded=0;sketch=1;" vertex="1" parent="1">
          <mxGeometry x="96" y="130" width="138" height="44" as="geometry" />
        </mxCell>
        <mxCell id="KQJn2tuOF-RIVonFvmoG-31" value="App" style="whiteSpace=wrap;html=1;rounded=0;sketch=1;" vertex="1" parent="1">
          <mxGeometry x="96" y="200" width="138" height="44" as="geometry" />
        </mxCell>
        <mxCell id="KQJn2tuOF-RIVonFvmoG-32" value="Factories" style="whiteSpace=wrap;html=1;rounded=0;sketch=1;" vertex="1" parent="1">
          <mxGeometry x="96" y="270" width="138" height="44" as="geometry" />
        </mxCell>
      </root>
    </mxGraphModel>
  </diagram>
</mxfile>
